<?xml version="1.0" encoding="utf-8"?>
<!-- Generator: Adobe Illustrator 16.0.1, SVG Export Plug-In . SVG Version: 6.00 Build 0)  -->
<!DOCTYPE svg PUBLIC "-//W3C//DTD SVG 1.1//EN" "http://www.w3.org/Graphics/SVG/1.1/DTD/svg11.dtd">
<svg version="1.1" id="Ebene_1" xmlns="http://www.w3.org/2000/svg" xmlns:xlink="http://www.w3.org/1999/xlink" x="0px" y="0px"
	 width="96px" height="96px" viewBox="0 0 96 96" enable-background="new 0 0 96 96" xml:space="preserve">
<g>
	
		<line fill="none" stroke="#FFFFFF" stroke-width="4" stroke-linecap="round" stroke-linejoin="round" stroke-miterlimit="10" x1="2" y1="18" x2="82" y2="18"/>
	<g>
		<path fill="#FFFFFF" d="M14,8c-1.105,0-2,0.895-2,2s0.895,2,2,2s2-0.895,2-2S15.105,8,14,8L14,8z"/>
	</g>
	<g>
		<path fill="#FFFFFF" d="M22,8c-1.105,0-2,0.895-2,2s0.895,2,2,2s2-0.895,2-2S23.105,8,22,8L22,8z"/>
	</g>
	<g>
		<path fill="#FFFFFF" d="M30,8c-1.105,0-2,0.895-2,2s0.895,2,2,2s2-0.895,2-2S31.105,8,30,8L30,8z"/>
	</g>
	<path fill="none" stroke="#FFFFFF" stroke-width="4" stroke-linecap="round" stroke-miterlimit="10" d="M34,66H10
		c-4.414,0-8-3.582-8-8V10c0-4.418,3.586-8,8-8h64c4.42,0,8,3.582,8,8v24"/>
	<circle fill="none" stroke="#FFFFFF" stroke-width="4" stroke-miterlimit="10" cx="70" cy="70" r="24"/>
	
		<line fill="none" stroke="#FFFFFF" stroke-width="4" stroke-linecap="round" stroke-miterlimit="10" x1="60.098" y1="79.898" x2="79.898" y2="60.102"/>
	
		<line fill="none" stroke="#FFFFFF" stroke-width="4" stroke-linecap="round" stroke-miterlimit="10" x1="79.898" y1="79.898" x2="60.098" y2="60.102"/>
</g>
</svg>
