<?xml version="1.0" encoding="utf-8"?>
<!-- Generator: Adobe Illustrator 16.0.1, SVG Export Plug-In . SVG Version: 6.00 Build 0)  -->
<!DOCTYPE svg PUBLIC "-//W3C//DTD SVG 1.1//EN" "http://www.w3.org/Graphics/SVG/1.1/DTD/svg11.dtd">
<svg version="1.1" id="Ebene_1" xmlns="http://www.w3.org/2000/svg" xmlns:xlink="http://www.w3.org/1999/xlink" x="0px" y="0px"
	 width="96px" height="96px" viewBox="0 0 96 96" enable-background="new 0 0 96 96" xml:space="preserve">
<g>
	
		<line fill="none" stroke="#FFFFFF" stroke-width="4" stroke-linecap="round" stroke-linejoin="round" stroke-miterlimit="10" x1="2" y1="18" x2="82" y2="18"/>
	<g>
		<path fill="#FFFFFF" d="M14,8c-1.105,0-2,0.895-2,2s0.895,2,2,2s2-0.895,2-2S15.105,8,14,8L14,8z"/>
	</g>
	<g>
		<path fill="#FFFFFF" d="M22,8c-1.105,0-2,0.895-2,2s0.895,2,2,2s2-0.895,2-2S23.105,8,22,8L22,8z"/>
	</g>
	<g>
		<path fill="#FFFFFF" d="M30,8c-1.105,0-2,0.895-2,2s0.895,2,2,2s2-0.895,2-2S31.105,8,30,8L30,8z"/>
	</g>
	<path fill="none" stroke="#FFFFFF" stroke-width="4" stroke-linecap="round" stroke-miterlimit="10" d="M34,66H10
		c-4.416,0-8-3.582-8-8V10c0-4.419,3.584-8,8-8h64c4.42,0,8,3.581,8,8v24"/>
	<g>
		<path fill="none" stroke="#FFFFFF" stroke-width="4" stroke-miterlimit="10" d="M94,70c0,13.257-10.746,24-24,24
			c-13.258,0-24-10.743-24-24c0-13.253,10.742-24,24-24C83.254,46,94,56.747,94,70z"/>
		
			<line fill="none" stroke="#FFFFFF" stroke-width="4" stroke-linecap="round" stroke-miterlimit="10" x1="59.09" y1="70.013" x2="80.91" y2="70.013"/>
		
			<line fill="none" stroke="#FFFFFF" stroke-width="4" stroke-linecap="round" stroke-miterlimit="10" x1="70" y1="80.922" x2="70" y2="59.104"/>
	</g>
</g>
</svg>
