<?xml version="1.0" encoding="utf-8"?>
<!-- Generator: Adobe Illustrator 16.0.1, SVG Export Plug-In . SVG Version: 6.00 Build 0)  -->
<!DOCTYPE svg PUBLIC "-//W3C//DTD SVG 1.1//EN" "http://www.w3.org/Graphics/SVG/1.1/DTD/svg11.dtd">
<svg version="1.1" id="Ebene_1" xmlns="http://www.w3.org/2000/svg" xmlns:xlink="http://www.w3.org/1999/xlink" x="0px" y="0px"
	 preserveAspectRatio="xMidYMid meet" viewBox="0 0 96 96" enable-background="new 0 0 96 96" xml:space="preserve">
<g>

		<circle fill="none" stroke="#FFFFFF" stroke-width="4" stroke-linecap="round" stroke-linejoin="round" stroke-miterlimit="10" cx="47.667" cy="47.667" r="46"/>
	<path fill="none" stroke="#FFFFFF" stroke-width="4" stroke-linecap="round" stroke-linejoin="round" stroke-miterlimit="10" d="
		M81.667,16.686c0,0-2,10.98-10,14.98c-8-2-16,4-14,4s4,8,4,8c2,2,6,0,6,0c5,5-8,14-8,16s5,3,2,6s-6,4-6,4c0,10-10,10-12,10
		s-6-8-6-10s2-4,2-6s-4-6-4-6c0-8-6-6-12-6s-6-8-6-8s0-14,10-16s10,2,10,2c4,4,12,0,16,0c0,0,2-14-2-12s-7.586,0.453-8-4
		c-0.582-6.251,17.453-10,17.453-10"/>
</g>
</svg>
